<svg width="535" height="695" viewBox="0 0 535 695" fill="none" xmlns="http://www.w3.org/2000/svg">
<rect y="377.998" width="534.351" height="317.002" rx="74" fill="#BE9360" fill-opacity="0.4"/>
<path d="M253.602 565.598C253.602 560.99 254.242 556.894 255.522 553.31C256.888 549.726 258.552 546.569 260.514 543.838C262.477 541.022 264.568 538.547 266.786 536.414C269.09 534.195 271.224 532.233 273.186 530.526C275.149 528.734 276.77 527.155 278.05 525.79C279.33 524.339 279.97 522.931 279.97 521.566C279.97 521.054 279.629 520.371 278.946 519.518C278.264 518.579 277.197 518.11 275.746 518.11C274.125 518.11 272.12 518.793 269.73 520.158C267.426 521.438 265.08 522.974 262.69 524.766C260.301 526.473 257.826 528.478 255.266 530.782L248.482 515.038C252.834 511.113 257.741 508.041 263.202 505.822C268.664 503.518 274.21 502.366 279.842 502.366C282.573 502.366 285.133 502.665 287.522 503.262C289.997 503.774 292.13 504.713 293.922 506.078C295.8 507.358 297.293 509.065 298.402 511.198C299.512 513.246 300.066 515.763 300.066 518.75C300.066 522.931 299.384 526.515 298.018 529.502C296.653 532.403 294.946 534.963 292.898 537.182C290.936 539.401 288.674 541.449 286.114 543.326C283.64 545.203 281.25 547.123 278.946 549.086C276.642 551.049 274.552 553.225 272.674 555.614C270.797 558.003 269.474 560.819 268.706 564.062L261.154 564.83L253.602 565.598ZM274.722 584.158C274.722 585.95 274.338 587.699 273.57 589.406C272.802 591.113 271.65 592.691 270.114 594.142C268.578 595.507 266.658 596.617 264.354 597.47C262.136 598.323 259.618 598.75 256.802 598.75C253.389 598.75 250.872 597.726 249.25 595.678C247.629 593.545 246.818 591.027 246.818 588.126C246.818 586.505 247.117 584.883 247.714 583.262C248.312 581.555 249.208 580.019 250.402 578.654C251.682 577.289 253.218 576.179 255.01 575.326C256.802 574.473 258.85 574.046 261.154 574.046C265.848 574.046 269.261 575.07 271.394 577.118C273.613 579.166 274.722 581.513 274.722 584.158Z" fill="black"/>
<rect width="534.351" height="317.002" rx="74" fill="#845D30" fill-opacity="0.4"/>
<path d="M253.602 187.6C253.602 182.992 254.242 178.896 255.522 175.312C256.888 171.728 258.552 168.571 260.514 165.84C262.477 163.024 264.568 160.55 266.786 158.416C269.09 156.198 271.224 154.235 273.186 152.528C275.149 150.736 276.77 149.158 278.05 147.792C279.33 146.342 279.97 144.934 279.97 143.568C279.97 143.056 279.629 142.374 278.946 141.52C278.264 140.582 277.197 140.112 275.746 140.112C274.125 140.112 272.12 140.795 269.73 142.16C267.426 143.44 265.08 144.976 262.69 146.768C260.301 148.475 257.826 150.48 255.266 152.784L248.482 137.04C252.834 133.115 257.741 130.043 263.202 127.824C268.664 125.52 274.21 124.368 279.842 124.368C282.573 124.368 285.133 124.667 287.522 125.264C289.997 125.776 292.13 126.715 293.922 128.08C295.8 129.36 297.293 131.067 298.402 133.2C299.512 135.248 300.066 137.766 300.066 140.752C300.066 144.934 299.384 148.518 298.018 151.504C296.653 154.406 294.946 156.966 292.898 159.184C290.936 161.403 288.674 163.451 286.114 165.328C283.64 167.206 281.25 169.126 278.946 171.088C276.642 173.051 274.552 175.227 272.674 177.616C270.797 180.006 269.474 182.822 268.706 186.064L261.154 186.832L253.602 187.6ZM274.722 206.16C274.722 207.952 274.338 209.702 273.57 211.408C272.802 213.115 271.65 214.694 270.114 216.144C268.578 217.51 266.658 218.619 264.354 219.472C262.136 220.326 259.618 220.752 256.802 220.752C253.389 220.752 250.872 219.728 249.25 217.68C247.629 215.547 246.818 213.03 246.818 210.128C246.818 208.507 247.117 206.886 247.714 205.264C248.312 203.558 249.208 202.022 250.402 200.656C251.682 199.291 253.218 198.182 255.01 197.328C256.802 196.475 258.85 196.048 261.154 196.048C265.848 196.048 269.261 197.072 271.394 199.12C273.613 201.168 274.722 203.515 274.722 206.16Z" fill="black"/>
</svg>
